<svg xmlns="http://www.w3.org/2000/svg" xmlns:xlink="http://www.w3.org/1999/xlink" width="500" zoomAndPan="magnify" viewBox="0 0 375 374.999991" height="500" preserveAspectRatio="xMidYMid meet" version="1.0"><defs><g/><clipPath id="c5cc76750b"><path d="M 174 121.277344 L 229 121.277344 L 229 224 L 174 224 Z M 174 121.277344 " clip-rule="nonzero"/></clipPath><clipPath id="5b5af5f42e"><path d="M 320 121.277344 L 374.742188 121.277344 L 374.742188 224 L 320 224 Z M 320 121.277344 " clip-rule="nonzero"/></clipPath><clipPath id="85112662cc"><path d="M 256 121.277344 L 293 121.277344 L 293 224.027344 L 256 224.027344 Z M 256 121.277344 " clip-rule="nonzero"/></clipPath></defs><g clip-path="url(#c5cc76750b)"><path fill="#54c7e3" d="M 227.339844 122.234375 C 226.386719 121.28125 224.84375 121.28125 223.890625 122.234375 L 175.136719 170.988281 C 174.183594 171.941406 174.183594 173.484375 175.136719 174.4375 L 223.890625 223.195312 C 224.363281 223.671875 224.988281 223.910156 225.613281 223.910156 C 226.238281 223.910156 226.859375 223.671875 227.339844 223.199219 C 228.289062 222.246094 228.289062 220.703125 227.339844 219.75 L 180.304688 172.714844 L 227.332031 125.683594 C 228.289062 124.730469 228.289062 123.1875 227.339844 122.234375 Z M 227.339844 122.234375 " fill-opacity="1" fill-rule="nonzero"/></g><g clip-path="url(#5b5af5f42e)"><path fill="#54c7e3" d="M 373.609375 170.988281 L 324.851562 122.234375 C 323.902344 121.28125 322.355469 121.28125 321.40625 122.234375 C 320.453125 123.183594 320.453125 124.730469 321.40625 125.679688 L 368.4375 172.714844 L 321.40625 219.746094 C 320.453125 220.695312 320.453125 222.242188 321.40625 223.195312 C 321.878906 223.671875 322.503906 223.910156 323.125 223.910156 C 323.75 223.910156 324.375 223.671875 324.851562 223.199219 L 373.609375 174.441406 C 374.558594 173.484375 374.558594 171.945312 373.609375 170.988281 Z M 373.609375 170.988281 " fill-opacity="1" fill-rule="nonzero"/></g><path fill="#54c7e3" d="M 274.292969 172.5 C 269.632812 172.5 264.917969 171.15625 264.917969 168.589844 L 264.917969 164.65625 C 264.917969 164.164062 265.316406 163.765625 265.808594 163.765625 C 266.300781 163.765625 266.699219 164.164062 266.699219 164.65625 L 266.699219 168.589844 C 266.699219 169.222656 269.28125 170.714844 274.292969 170.714844 C 279.300781 170.714844 281.882812 169.222656 281.882812 168.589844 L 281.882812 164.65625 C 281.882812 164.164062 282.28125 163.765625 282.773438 163.765625 C 283.265625 163.765625 283.664062 164.164062 283.664062 164.65625 L 283.664062 168.589844 C 283.664062 171.15625 278.949219 172.5 274.292969 172.5 " fill-opacity="1" fill-rule="nonzero"/><path fill="#54c7e3" d="M 274.292969 176.53125 C 269.632812 176.53125 264.917969 175.1875 264.917969 172.621094 L 264.917969 168.6875 C 264.917969 168.195312 265.316406 167.796875 265.808594 167.796875 C 266.300781 167.796875 266.699219 168.195312 266.699219 168.6875 L 266.699219 172.621094 C 266.699219 173.253906 269.28125 174.746094 274.292969 174.746094 C 279.300781 174.746094 281.882812 173.253906 281.882812 172.621094 L 281.882812 168.6875 C 281.882812 168.195312 282.28125 167.796875 282.773438 167.796875 C 283.265625 167.796875 283.664062 168.195312 283.664062 168.6875 L 283.664062 172.621094 C 283.664062 175.1875 278.949219 176.53125 274.292969 176.53125 " fill-opacity="1" fill-rule="nonzero"/><path fill="#54c7e3" d="M 274.292969 180.566406 C 269.632812 180.566406 264.917969 179.222656 264.917969 176.652344 L 264.917969 172.722656 C 264.917969 172.230469 265.316406 171.828125 265.808594 171.828125 C 266.300781 171.828125 266.699219 172.230469 266.699219 172.722656 L 266.699219 176.652344 C 266.699219 177.289062 269.28125 178.78125 274.292969 178.78125 C 279.300781 178.78125 281.882812 177.289062 281.882812 176.652344 L 281.882812 172.722656 C 281.882812 172.226562 282.28125 171.828125 282.773438 171.828125 C 283.265625 171.828125 283.664062 172.226562 283.664062 172.722656 L 283.664062 176.652344 C 283.664062 179.222656 278.949219 180.566406 274.292969 180.566406 " fill-opacity="1" fill-rule="nonzero"/><path fill="#54c7e3" d="M 274.292969 184.597656 C 269.632812 184.597656 264.917969 183.253906 264.917969 180.683594 L 264.917969 176.753906 C 264.917969 176.261719 265.316406 175.859375 265.808594 175.859375 C 266.300781 175.859375 266.699219 176.261719 266.699219 176.753906 L 266.699219 180.683594 C 266.699219 181.320312 269.28125 182.8125 274.292969 182.8125 C 279.300781 182.8125 281.882812 181.320312 281.882812 180.683594 L 281.882812 176.753906 C 281.882812 176.261719 282.28125 175.859375 282.773438 175.859375 C 283.265625 175.859375 283.664062 176.261719 283.664062 176.753906 L 283.664062 180.683594 C 283.664062 183.253906 278.949219 184.597656 274.292969 184.597656 " fill-opacity="1" fill-rule="nonzero"/><path fill="#54c7e3" d="M 274.292969 162.496094 C 269.28125 162.496094 266.699219 163.988281 266.699219 164.621094 C 266.699219 164.835938 267.109375 165.320312 268.234375 165.777344 C 269.742188 166.394531 271.949219 166.75 274.292969 166.75 C 276.632812 166.75 278.839844 166.394531 280.347656 165.777344 C 281.476562 165.320312 281.882812 164.835938 281.882812 164.621094 C 281.882812 163.988281 279.300781 162.496094 274.292969 162.496094 Z M 274.292969 168.535156 C 271.730469 168.535156 269.277344 168.132812 267.5625 167.433594 C 265.378906 166.542969 264.917969 165.414062 264.917969 164.621094 C 264.917969 162.054688 269.632812 160.710938 274.292969 160.710938 C 278.949219 160.710938 283.664062 162.054688 283.664062 164.621094 C 283.664062 165.414062 283.203125 166.542969 281.019531 167.433594 C 279.304688 168.132812 276.851562 168.535156 274.292969 168.535156 " fill-opacity="1" fill-rule="nonzero"/><g clip-path="url(#85112662cc)"><path fill="#54c7e3" d="M 274.292969 123.0625 C 270.230469 123.0625 266.167969 128.230469 263.140625 137.242188 C 259.964844 146.6875 258.21875 159.261719 258.21875 172.652344 C 258.21875 186.042969 259.964844 198.621094 263.140625 208.066406 C 266.167969 217.078125 270.230469 222.246094 274.292969 222.246094 C 278.351562 222.246094 282.414062 217.078125 285.441406 208.066406 C 288.617188 198.621094 290.363281 186.042969 290.363281 172.652344 C 290.363281 159.261719 288.617188 146.6875 285.441406 137.242188 C 282.414062 128.230469 278.351562 123.0625 274.292969 123.0625 Z M 274.292969 224.03125 C 269.347656 224.03125 264.789062 218.5625 261.453125 208.636719 C 258.21875 199.011719 256.4375 186.234375 256.4375 172.652344 C 256.4375 159.074219 258.21875 146.296875 261.453125 136.671875 C 264.789062 126.746094 269.347656 121.277344 274.292969 121.277344 C 279.234375 121.277344 283.792969 126.746094 287.128906 136.671875 C 290.363281 146.296875 292.144531 159.074219 292.144531 172.652344 C 292.144531 186.234375 290.363281 199.011719 287.128906 208.636719 C 283.792969 218.5625 279.234375 224.03125 274.292969 224.03125 " fill-opacity="1" fill-rule="nonzero"/></g><path fill="#54c7e3" d="M 307.679688 144.316406 C 305.246094 144.316406 302.429688 144.628906 299.296875 145.261719 C 289.550781 147.230469 277.816406 152 266.253906 158.691406 C 254.691406 165.386719 244.707031 173.195312 238.136719 180.675781 C 231.871094 187.808594 229.4375 193.921875 231.46875 197.449219 C 233.5 200.972656 239.992188 201.921875 249.289062 200.042969 C 259.03125 198.078125 270.765625 193.308594 282.328125 186.613281 C 293.890625 179.917969 303.875 172.113281 310.445312 164.632812 C 316.714844 157.5 319.144531 151.382812 317.113281 147.859375 C 315.769531 145.519531 312.460938 144.316406 307.679688 144.316406 Z M 240.914062 202.777344 C 235.414062 202.777344 231.613281 201.273438 229.925781 198.34375 C 227.457031 194.046875 229.894531 187.355469 236.800781 179.492188 C 243.496094 171.875 253.640625 163.9375 265.363281 157.148438 C 277.089844 150.359375 289.015625 145.515625 298.945312 143.511719 C 309.183594 141.445312 316.183594 142.671875 318.65625 146.964844 C 321.128906 151.257812 318.6875 157.953125 311.78125 165.8125 C 305.089844 173.433594 294.945312 181.371094 283.21875 188.160156 C 271.492188 194.949219 259.566406 199.792969 249.640625 201.796875 C 246.390625 202.453125 243.46875 202.777344 240.914062 202.777344 " fill-opacity="1" fill-rule="nonzero"/><path fill="#54c7e3" d="M 240.902344 144.316406 C 236.121094 144.316406 232.8125 145.519531 231.46875 147.859375 C 229.4375 151.382812 231.871094 157.5 238.136719 164.632812 C 244.707031 172.113281 254.691406 179.917969 266.253906 186.613281 C 277.816406 193.308594 289.550781 198.078125 299.296875 200.042969 C 308.589844 201.921875 315.085938 200.972656 317.113281 197.449219 C 319.144531 193.921875 316.714844 187.808594 310.445312 180.675781 C 303.875 173.195312 293.890625 165.386719 282.328125 158.691406 C 270.765625 152 259.03125 147.230469 249.289062 145.261719 C 246.152344 144.628906 243.335938 144.316406 240.902344 144.316406 Z M 307.667969 202.777344 C 305.113281 202.777344 302.191406 202.453125 298.945312 201.796875 C 289.015625 199.792969 277.089844 194.949219 265.363281 188.160156 C 253.640625 181.371094 243.496094 173.433594 236.800781 165.8125 C 229.894531 157.953125 227.457031 151.257812 229.925781 146.964844 C 232.398438 142.671875 239.398438 141.445312 249.640625 143.511719 C 259.566406 145.515625 271.492188 150.359375 283.21875 157.148438 C 294.945312 163.9375 305.089844 171.875 311.78125 179.492188 C 318.6875 187.355469 321.128906 194.046875 318.65625 198.34375 C 316.96875 201.273438 313.167969 202.773438 307.667969 202.777344 " fill-opacity="1" fill-rule="nonzero"/><g fill="#ffffff" fill-opacity="1"><g transform="translate(0.0000045, 218.866831)"><g><path d="M 70.96875 -46.953125 L 26.359375 -46.953125 L 26.359375 0 L 12.34375 0 L 12.34375 -106.3125 L 78.203125 -106.3125 L 78.203125 -94.78125 L 26.359375 -94.78125 L 26.359375 -58.421875 L 70.96875 -58.421875 Z M 70.96875 -46.953125 "/></g></g></g><g fill="#ffffff" fill-opacity="1"><g transform="translate(82.655687, 218.866831)"><g><path d="M 90.546875 -33.734375 C 89.234375 -22.492188 85.082031 -13.816406 78.09375 -7.703125 C 71.113281 -1.597656 61.828125 1.453125 50.234375 1.453125 C 37.679688 1.453125 27.617188 -3.046875 20.046875 -12.046875 C 12.472656 -21.054688 8.6875 -33.101562 8.6875 -48.1875 L 8.6875 -58.421875 C 8.6875 -68.296875 10.453125 -76.984375 13.984375 -84.484375 C 17.515625 -91.984375 22.515625 -97.738281 28.984375 -101.75 C 35.460938 -105.769531 42.960938 -107.78125 51.484375 -107.78125 C 62.773438 -107.78125 71.828125 -104.625 78.640625 -98.3125 C 85.453125 -92.007812 89.421875 -83.285156 90.546875 -72.140625 L 76.453125 -72.140625 C 75.234375 -80.609375 72.59375 -86.738281 68.53125 -90.53125 C 64.46875 -94.332031 58.785156 -96.234375 51.484375 -96.234375 C 42.523438 -96.234375 35.5 -92.921875 30.40625 -86.296875 C 25.320312 -79.679688 22.78125 -70.265625 22.78125 -58.046875 L 22.78125 -47.75 C 22.78125 -36.21875 25.1875 -27.039062 30 -20.21875 C 34.820312 -13.40625 41.566406 -10 50.234375 -10 C 58.023438 -10 64 -11.765625 68.15625 -15.296875 C 72.320312 -18.828125 75.085938 -24.972656 76.453125 -33.734375 Z M 90.546875 -33.734375 "/></g></g></g><g fill="#ffffff" fill-opacity="1"><g transform="translate(179.990837, 218.866831)"><g/></g></g></svg>