<svg xmlns="http://www.w3.org/2000/svg" xmlns:xlink="http://www.w3.org/1999/xlink" width="500" zoomAndPan="magnify" viewBox="0 0 375 374.999991" height="500" preserveAspectRatio="xMidYMid meet" version="1.0"><defs><g/><clipPath id="a08e77a63c"><path d="M 174 121.75 L 229 121.75 L 229 224.5 L 174 224.5 Z M 174 121.75 " clip-rule="nonzero"/></clipPath><clipPath id="48b8cadf6b"><path d="M 320 121.75 L 374.742188 121.75 L 374.742188 224.5 L 320 224.5 Z M 320 121.75 " clip-rule="nonzero"/></clipPath><clipPath id="30159a8f3f"><path d="M 256 121.433594 L 293 121.433594 L 293 224.183594 L 256 224.183594 Z M 256 121.433594 " clip-rule="nonzero"/></clipPath></defs><g clip-path="url(#a08e77a63c)"><path fill="#54c7e3" d="M 227.339844 122.707031 C 226.386719 121.753906 224.84375 121.753906 223.890625 122.707031 L 175.136719 171.460938 C 174.183594 172.414062 174.183594 173.957031 175.136719 174.910156 L 223.890625 223.667969 C 224.363281 224.144531 224.988281 224.382812 225.613281 224.382812 C 226.238281 224.382812 226.859375 224.144531 227.339844 223.671875 C 228.289062 222.71875 228.289062 221.175781 227.339844 220.222656 L 180.304688 173.1875 L 227.332031 126.15625 C 228.289062 125.203125 228.289062 123.660156 227.339844 122.707031 Z M 227.339844 122.707031 " fill-opacity="1" fill-rule="nonzero"/></g><g clip-path="url(#48b8cadf6b)"><path fill="#54c7e3" d="M 373.609375 171.460938 L 324.851562 122.707031 C 323.902344 121.753906 322.355469 121.753906 321.40625 122.707031 C 320.453125 123.65625 320.453125 125.203125 321.40625 126.152344 L 368.4375 173.1875 L 321.40625 220.21875 C 320.453125 221.171875 320.453125 222.714844 321.40625 223.667969 C 321.878906 224.144531 322.503906 224.382812 323.125 224.382812 C 323.75 224.382812 324.375 224.144531 324.851562 223.671875 L 373.609375 174.914062 C 374.558594 173.957031 374.558594 172.417969 373.609375 171.460938 Z M 373.609375 171.460938 " fill-opacity="1" fill-rule="nonzero"/></g><path fill="#54c7e3" d="M 274.292969 172.65625 C 269.632812 172.65625 264.917969 171.3125 264.917969 168.746094 L 264.917969 164.8125 C 264.917969 164.320312 265.316406 163.921875 265.808594 163.921875 C 266.300781 163.921875 266.699219 164.320312 266.699219 164.8125 L 266.699219 168.746094 C 266.699219 169.382812 269.28125 170.871094 274.292969 170.871094 C 279.300781 170.871094 281.882812 169.382812 281.882812 168.746094 L 281.882812 164.8125 C 281.882812 164.320312 282.28125 163.921875 282.773438 163.921875 C 283.265625 163.921875 283.664062 164.320312 283.664062 164.8125 L 283.664062 168.746094 C 283.664062 171.3125 278.949219 172.65625 274.292969 172.65625 " fill-opacity="1" fill-rule="nonzero"/><path fill="#54c7e3" d="M 274.292969 176.6875 C 269.632812 176.6875 264.917969 175.34375 264.917969 172.777344 L 264.917969 168.84375 C 264.917969 168.351562 265.316406 167.953125 265.808594 167.953125 C 266.300781 167.953125 266.699219 168.351562 266.699219 168.84375 L 266.699219 172.777344 C 266.699219 173.414062 269.28125 174.902344 274.292969 174.902344 C 279.300781 174.902344 281.882812 173.414062 281.882812 172.777344 L 281.882812 168.84375 C 281.882812 168.351562 282.28125 167.953125 282.773438 167.953125 C 283.265625 167.953125 283.664062 168.351562 283.664062 168.84375 L 283.664062 172.777344 C 283.664062 175.34375 278.949219 176.6875 274.292969 176.6875 " fill-opacity="1" fill-rule="nonzero"/><path fill="#54c7e3" d="M 274.292969 180.722656 C 269.632812 180.722656 264.917969 179.378906 264.917969 176.8125 L 264.917969 172.878906 C 264.917969 172.386719 265.316406 171.984375 265.808594 171.984375 C 266.300781 171.984375 266.699219 172.386719 266.699219 172.878906 L 266.699219 176.8125 C 266.699219 177.449219 269.28125 178.9375 274.292969 178.9375 C 279.300781 178.9375 281.882812 177.449219 281.882812 176.8125 L 281.882812 172.878906 C 281.882812 172.386719 282.28125 171.984375 282.773438 171.984375 C 283.265625 171.984375 283.664062 172.386719 283.664062 172.878906 L 283.664062 176.8125 C 283.664062 179.378906 278.949219 180.722656 274.292969 180.722656 " fill-opacity="1" fill-rule="nonzero"/><path fill="#54c7e3" d="M 274.292969 184.753906 C 269.632812 184.753906 264.917969 183.410156 264.917969 180.84375 L 264.917969 176.910156 C 264.917969 176.417969 265.316406 176.019531 265.808594 176.019531 C 266.300781 176.019531 266.699219 176.417969 266.699219 176.910156 L 266.699219 180.84375 C 266.699219 181.476562 269.28125 182.96875 274.292969 182.96875 C 279.300781 182.96875 281.882812 181.476562 281.882812 180.84375 L 281.882812 176.910156 C 281.882812 176.417969 282.28125 176.019531 282.773438 176.019531 C 283.265625 176.019531 283.664062 176.417969 283.664062 176.910156 L 283.664062 180.84375 C 283.664062 183.410156 278.949219 184.753906 274.292969 184.753906 " fill-opacity="1" fill-rule="nonzero"/><path fill="#54c7e3" d="M 274.292969 162.652344 C 269.28125 162.652344 266.699219 164.144531 266.699219 164.78125 C 266.699219 164.992188 267.109375 165.476562 268.234375 165.9375 C 269.742188 166.550781 271.949219 166.90625 274.292969 166.90625 C 276.632812 166.90625 278.839844 166.550781 280.347656 165.9375 C 281.476562 165.476562 281.882812 164.992188 281.882812 164.78125 C 281.882812 164.144531 279.300781 162.652344 274.292969 162.652344 Z M 274.292969 168.691406 C 271.730469 168.691406 269.277344 168.289062 267.5625 167.589844 C 265.378906 166.699219 264.917969 165.570312 264.917969 164.78125 C 264.917969 162.210938 269.632812 160.867188 274.292969 160.867188 C 278.949219 160.867188 283.664062 162.210938 283.664062 164.78125 C 283.664062 165.570312 283.203125 166.699219 281.019531 167.589844 C 279.304688 168.289062 276.851562 168.691406 274.292969 168.691406 " fill-opacity="1" fill-rule="nonzero"/><g clip-path="url(#30159a8f3f)"><path fill="#54c7e3" d="M 274.292969 123.21875 C 270.230469 123.21875 266.167969 128.386719 263.140625 137.398438 C 259.964844 146.84375 258.21875 159.421875 258.21875 172.8125 C 258.21875 186.203125 259.964844 198.777344 263.140625 208.222656 C 266.167969 217.234375 270.230469 222.402344 274.292969 222.402344 C 278.351562 222.402344 282.414062 217.234375 285.441406 208.222656 C 288.617188 198.777344 290.363281 186.203125 290.363281 172.8125 C 290.363281 159.421875 288.617188 146.84375 285.441406 137.398438 C 282.414062 128.386719 278.351562 123.21875 274.292969 123.21875 Z M 274.292969 224.1875 C 269.347656 224.1875 264.789062 218.71875 261.453125 208.792969 C 258.21875 199.167969 256.4375 186.390625 256.4375 172.8125 C 256.4375 159.230469 258.21875 146.453125 261.453125 136.828125 C 264.789062 126.902344 269.347656 121.433594 274.292969 121.433594 C 279.234375 121.433594 283.792969 126.902344 287.128906 136.828125 C 290.363281 146.453125 292.144531 159.230469 292.144531 172.8125 C 292.144531 186.390625 290.363281 199.167969 287.128906 208.792969 C 283.792969 218.71875 279.234375 224.1875 274.292969 224.1875 " fill-opacity="1" fill-rule="nonzero"/></g><path fill="#54c7e3" d="M 307.679688 144.476562 C 305.246094 144.476562 302.429688 144.789062 299.296875 145.421875 C 289.550781 147.386719 277.816406 152.15625 266.253906 158.851562 C 254.691406 165.546875 244.707031 173.351562 238.136719 180.832031 C 231.871094 187.964844 229.4375 194.082031 231.46875 197.605469 C 233.5 201.132812 239.992188 202.078125 249.289062 200.203125 C 259.03125 198.234375 270.765625 193.464844 282.328125 186.769531 C 293.890625 180.078125 303.875 172.269531 310.445312 164.789062 C 316.714844 157.65625 319.144531 151.542969 317.113281 148.015625 C 315.769531 145.679688 312.460938 144.476562 307.679688 144.476562 Z M 240.914062 202.933594 C 235.414062 202.933594 231.613281 201.429688 229.925781 198.5 C 227.457031 194.207031 229.894531 187.511719 236.800781 179.652344 C 243.496094 172.03125 253.640625 164.09375 265.363281 157.304688 C 277.089844 150.515625 289.015625 145.671875 298.945312 143.667969 C 309.183594 141.601562 316.183594 142.828125 318.65625 147.121094 C 321.128906 151.417969 318.6875 158.109375 311.78125 165.972656 C 305.089844 173.59375 294.945312 181.527344 283.21875 188.316406 C 271.492188 195.105469 259.566406 199.949219 249.640625 201.953125 C 246.390625 202.609375 243.46875 202.933594 240.914062 202.933594 " fill-opacity="1" fill-rule="nonzero"/><path fill="#54c7e3" d="M 240.902344 144.476562 C 236.121094 144.476562 232.8125 145.679688 231.46875 148.015625 C 229.4375 151.542969 231.871094 157.65625 238.136719 164.789062 C 244.707031 172.269531 254.691406 180.078125 266.253906 186.769531 C 277.816406 193.464844 289.550781 198.234375 299.296875 200.203125 C 308.589844 202.078125 315.085938 201.132812 317.113281 197.605469 C 319.144531 194.082031 316.714844 187.964844 310.445312 180.832031 C 303.875 173.351562 293.890625 165.546875 282.328125 158.851562 C 270.765625 152.15625 259.03125 147.386719 249.289062 145.421875 C 246.152344 144.789062 243.335938 144.476562 240.902344 144.476562 Z M 307.667969 202.933594 C 305.113281 202.933594 302.191406 202.609375 298.945312 201.953125 C 289.015625 199.949219 277.089844 195.105469 265.363281 188.316406 C 253.640625 181.527344 243.496094 173.59375 236.800781 165.972656 C 229.894531 158.109375 227.457031 151.417969 229.925781 147.121094 C 232.398438 142.828125 239.398438 141.601562 249.640625 143.667969 C 259.566406 145.671875 271.492188 150.515625 283.21875 157.304688 C 294.945312 164.09375 305.089844 172.03125 311.78125 179.652344 C 318.6875 187.511719 321.128906 194.207031 318.65625 198.5 C 316.96875 201.429688 313.167969 202.933594 307.667969 202.933594 " fill-opacity="1" fill-rule="nonzero"/><g fill="#000000" fill-opacity="1"><g transform="translate(0.0000045, 230.288766)"><g><path d="M 71.859375 -46.953125 L 27.609375 -46.953125 L 27.609375 0 L 13.953125 0 L 13.953125 -106.3125 L 79.234375 -106.3125 L 79.234375 -94.78125 L 27.609375 -94.78125 L 27.609375 -58.421875 L 71.859375 -58.421875 Z M 71.859375 -46.953125 "/></g></g></g><g fill="#000000" fill-opacity="1"><g transform="translate(89.740389, 230.288766)"><g><path d="M 81.5625 -31.984375 C 80.925781 -27.066406 79.660156 -22.550781 77.765625 -18.4375 C 75.867188 -14.320312 73.398438 -10.789062 70.359375 -7.84375 C 67.316406 -4.90625 63.710938 -2.617188 59.546875 -0.984375 C 55.390625 0.640625 50.753906 1.453125 45.640625 1.453125 C 41.253906 1.453125 37.269531 0.832031 33.6875 -0.40625 C 30.113281 -1.644531 26.925781 -3.359375 24.125 -5.546875 C 21.332031 -7.734375 18.925781 -10.3125 16.90625 -13.28125 C 14.882812 -16.257812 13.203125 -19.5 11.859375 -23 C 10.523438 -26.507812 9.53125 -30.1875 8.875 -34.03125 C 8.21875 -37.875 7.863281 -41.769531 7.8125 -45.71875 L 7.8125 -60.53125 C 7.863281 -64.476562 8.21875 -68.375 8.875 -72.21875 C 9.53125 -76.0625 10.523438 -79.734375 11.859375 -83.234375 C 13.203125 -86.742188 14.882812 -89.992188 16.90625 -92.984375 C 18.925781 -95.984375 21.332031 -98.578125 24.125 -100.765625 C 26.925781 -102.960938 30.101562 -104.679688 33.65625 -105.921875 C 37.21875 -107.160156 41.210938 -107.78125 45.640625 -107.78125 C 50.941406 -107.78125 55.6875 -106.960938 59.875 -105.328125 C 64.0625 -103.703125 67.664062 -101.390625 70.6875 -98.390625 C 73.707031 -95.398438 76.128906 -91.8125 77.953125 -87.625 C 79.773438 -83.4375 80.976562 -78.8125 81.5625 -73.75 L 68.0625 -73.75 C 67.613281 -76.96875 66.851562 -79.960938 65.78125 -82.734375 C 64.71875 -85.503906 63.285156 -87.9375 61.484375 -90.03125 C 59.679688 -92.125 57.476562 -93.765625 54.875 -94.953125 C 52.269531 -96.148438 49.191406 -96.75 45.640625 -96.75 C 42.421875 -96.75 39.582031 -96.222656 37.125 -95.171875 C 34.664062 -94.128906 32.546875 -92.707031 30.765625 -90.90625 C 28.992188 -89.101562 27.507812 -87.007812 26.3125 -84.625 C 25.125 -82.238281 24.164062 -79.707031 23.4375 -77.03125 C 22.707031 -74.351562 22.179688 -71.613281 21.859375 -68.8125 C 21.546875 -66.019531 21.390625 -63.3125 21.390625 -60.6875 L 21.390625 -45.71875 C 21.390625 -43.082031 21.546875 -40.363281 21.859375 -37.5625 C 22.179688 -34.769531 22.707031 -32.019531 23.4375 -29.3125 C 24.164062 -26.613281 25.113281 -24.070312 26.28125 -21.6875 C 27.457031 -19.300781 28.941406 -17.191406 30.734375 -15.359375 C 32.535156 -13.535156 34.65625 -12.101562 37.09375 -11.0625 C 39.53125 -10.019531 42.378906 -9.5 45.640625 -9.5 C 49.191406 -9.5 52.269531 -10.054688 54.875 -11.171875 C 57.476562 -12.296875 59.679688 -13.863281 61.484375 -15.875 C 63.285156 -17.894531 64.71875 -20.28125 65.78125 -23.03125 C 66.851562 -25.78125 67.613281 -28.765625 68.0625 -31.984375 Z M 81.5625 -31.984375 "/></g></g></g><g fill="#000000" fill-opacity="1"><g transform="translate(179.484368, 230.288766)"><g/></g></g></svg>